HIERARCHY
ROOT Hips
{
	OFFSET 0.000000 1.471914 24.280096
	CHANNELS 6 Xposition Yposition Zposition Xrotation Yrotation Zrotation
	JOINT Spine
	{
		OFFSET 0.000000 0.900110 1.860670
		CHANNELS 6 Xposition Yposition Zposition Xrotation Yrotation Zrotation
		JOINT Spine1
		{
			OFFSET 0.000000 0.400320 2.270309
			CHANNELS 6 Xposition Yposition Zposition Xrotation Yrotation Zrotation
			JOINT Spine2
			{
				OFFSET 0.000000 0.200920 2.296560
				CHANNELS 6 Xposition Yposition Zposition Xrotation Yrotation Zrotation
				JOINT Spine3
				{
					OFFSET 0.000000 0.000000 2.305330
					CHANNELS 6 Xposition Yposition Zposition Xrotation Yrotation Zrotation
					JOINT Neck
					{
						OFFSET 0.000000 -0.864490 6.051487
						CHANNELS 6 Xposition Yposition Zposition Xrotation Yrotation Zrotation
						JOINT Head
						{
							OFFSET 0.000000 -0.550429 3.121674
							CHANNELS 6 Xposition Yposition Zposition Xrotation Yrotation Zrotation
							End Site
							{
								OFFSET 0.000000 0.000000 3.731750
							}
						}
					}
					JOINT RightShoulder
					{
						OFFSET -0.788280 -1.313800 4.256718
						CHANNELS 6 Xposition Yposition Zposition Xrotation Yrotation Zrotation
						JOINT RightArm
						{
							OFFSET -3.915130 0.000000 0.000000
							CHANNELS 6 Xposition Yposition Zposition Xrotation Yrotation Zrotation
							JOINT RightForeArm
							{
								OFFSET -6.914910 0.000000 0.000000
								CHANNELS 6 Xposition Yposition Zposition Xrotation Yrotation Zrotation
								JOINT RightHand
								{
									OFFSET -6.096219 0.000000 0.000000
									CHANNELS 6 Xposition Yposition Zposition Xrotation Yrotation Zrotation
									JOINT RightHandEnd
									{
										OFFSET -1.749950 0.000000 0.000000
										CHANNELS 6 Xposition Yposition Zposition Xrotation Yrotation Zrotation
										End Site
										{
											OFFSET -1.749950 0.000000 0.000000
										}
									}
									JOINT RightHandThumb1
									{
										OFFSET -0.699980 -1.166630 -0.466648
										CHANNELS 6 Xposition Yposition Zposition Xrotation Yrotation Zrotation
										End Site
										{
											OFFSET -1.690319 -0.452920 0.000000
										}
									}
								}
							}
						}
					}
					JOINT LeftShoulder
					{
						OFFSET 0.788280 -1.313800 4.256718
						CHANNELS 6 Xposition Yposition Zposition Xrotation Yrotation Zrotation
						JOINT LeftArm
						{
							OFFSET 3.915130 0.000000 0.000000
							CHANNELS 6 Xposition Yposition Zposition Xrotation Yrotation Zrotation
							JOINT LeftForeArm
							{
								OFFSET 6.914910 0.000000 0.000000
								CHANNELS 6 Xposition Yposition Zposition Xrotation Yrotation Zrotation
								JOINT LeftHand
								{
									OFFSET 6.096219 0.000000 0.000000
									CHANNELS 6 Xposition Yposition Zposition Xrotation Yrotation Zrotation
									JOINT LeftHandEnd
									{
										OFFSET 1.749950 0.000000 0.000000
										CHANNELS 6 Xposition Yposition Zposition Xrotation Yrotation Zrotation
										End Site
										{
											OFFSET 1.749950 0.000000 0.000000
										}
									}
									JOINT LeftHandThumb1
									{
										OFFSET 0.699980 -1.166630 -0.466648
										CHANNELS 6 Xposition Yposition Zposition Xrotation Yrotation Zrotation
										End Site
										{
											OFFSET 1.690319 -0.452920 0.000000
										}
									}
								}
							}
						}
					}
				}
			}
		}
	}
	JOINT RightUpLeg
	{
		OFFSET -2.338570 -0.252550 -0.551512
		CHANNELS 6 Xposition Yposition Zposition Xrotation Yrotation Zrotation
		JOINT RightLeg
		{
			OFFSET 0.000000 0.000000 -10.744959
			CHANNELS 6 Xposition Yposition Zposition Xrotation Yrotation Zrotation
			JOINT RightFoot
			{
				OFFSET 0.000000 -0.000001 -10.930849
				CHANNELS 6 Xposition Yposition Zposition Xrotation Yrotation Zrotation
				JOINT RightToeBase
				{
					OFFSET 0.000000 -4.087269 -1.487650
					CHANNELS 6 Xposition Yposition Zposition Xrotation Yrotation Zrotation
					End Site
					{
						OFFSET 0.000000 -1.891870 0.000000
					}
				}
			}
		}
	}
	JOINT LeftUpLeg
	{
		OFFSET 2.338570 -0.252550 -0.551512
		CHANNELS 6 Xposition Yposition Zposition Xrotation Yrotation Zrotation
		JOINT LeftLeg
		{
			OFFSET 0.000000 0.000000 -10.744959
			CHANNELS 6 Xposition Yposition Zposition Xrotation Yrotation Zrotation
			JOINT LeftFoot
			{
				OFFSET 0.000000 -0.000001 -10.930849
				CHANNELS 6 Xposition Yposition Zposition Xrotation Yrotation Zrotation
				JOINT LeftToeBase
				{
					OFFSET 0.000000 -4.087269 -1.487650
					CHANNELS 6 Xposition Yposition Zposition Xrotation Yrotation Zrotation
					End Site
					{
						OFFSET 0.000000 -1.891870 0.000000
					}
				}
			}
		}
	}
}
MOTION
Frames: 5
Frame Time: 0.041667
-0.000014 26.731045 39.966080 -6.973022 0.708651 -17.597656 -0.000009 0.900100 1.860712 20.308244 -0.146702 -0.519195 0.000000 0.400295 2.270348 -0.000002 -0.000001 0.000005 0.000022 0.200901 2.296516 0.000003 -0.000001 -0.000000 0.000015 -0.000037 2.305334 -0.000018 0.000002 -0.848765 -0.000008 -0.864469 6.051483 11.845980 -3.764626 -177.302750 0.000020 -0.550452 3.121719 -0.000003 -0.000001 0.000000 -0.788284 -1.313756 4.256756 -130.761649 34.748297 -41.996514 -3.915091 -0.000008 -0.000031 0.000002 -0.000002 0.000001 -6.914873 0.000001 0.000001 -0.000011 -0.000005 -83.406090 -6.096178 -0.000004 -0.000008 -0.000019 0.000044 -0.000065 -1.749926 0.000001 0.000008 0.000001 -0.000003 -0.000003 -0.700002 -1.166617 -0.466659 -0.000001 -0.000007 0.000002 0.788266 -1.313793 4.256745 -127.550258 -31.189591 41.113122 3.915186 -0.000015 -0.000000 -0.000000 0.000002 -0.000004 6.914904 -0.000020 -0.000020 0.000012 -0.000007 66.688792 6.096244 0.000054 -0.000019 0.000027 -0.000052 0.000007 1.749936 0.000008 0.000011 0.000004 -0.000005 -0.000004 0.699934 -1.166588 -0.466660 0.000021 -0.000006 -0.000026 -2.338581 -0.252527 -0.551508 17.562115 0.626091 -0.446571 0.000011 -0.000014 -10.744976 11.077614 0.220634 -0.149716 -0.000022 0.000033 -10.930837 -0.000003 0.000000 -0.000004 -0.000001 -4.087270 -1.487639 0.000003 0.000001 -0.000000 2.338571 -0.252535 -0.551446 15.526034 -2.622587 -0.405281 -0.000003 -0.000017 -10.744938 10.796536 0.569635 -0.765824 -0.000002 0.000008 -10.930861 0.000017 -0.000003 0.000001 -0.000018 -4.087224 -1.487653 -0.000004 0.000000 0.000000 
-0.000014 26.731045 39.966080 -6.979015 0.740792 -17.676610 -0.000008 0.900103 1.860708 20.331219 -0.211406 -0.515317 0.000003 0.400291 2.270338 -0.000000 -0.000001 0.000006 0.000021 0.200909 2.296526 0.000001 -0.000000 -0.000000 0.000017 -0.000039 2.305338 -0.000017 -0.000001 -0.868177 -0.000007 -0.864473 6.051480 11.619341 -3.829274 -176.733385 0.000020 -0.550452 3.121716 -0.000000 -0.000000 -0.000002 -0.788284 -1.313757 4.256757 -130.946816 34.759813 -41.827792 -3.915099 -0.000002 -0.000027 -0.000000 0.000001 -0.000002 -6.914883 0.000007 -0.000002 -0.000009 -0.000000 -83.256905 -6.096178 -0.000002 -0.000006 -0.000018 0.000049 -0.000061 -1.749934 -0.000005 0.000014 -0.000002 -0.000001 -0.000004 -0.700006 -1.166625 -0.466653 -0.000004 -0.000002 0.000001 0.788268 -1.313795 4.256741 -127.640376 -31.546144 41.433307 3.915196 -0.000005 0.000000 0.000001 0.000002 -0.000004 6.914902 -0.000024 -0.000025 0.000010 -0.000008 67.036934 6.096253 0.000054 -0.000015 0.000029 -0.000053 0.000003 1.749936 0.000009 0.000012 -0.000001 0.000001 -0.000003 0.699928 -1.166583 -0.466663 0.000019 -0.000000 -0.000023 -2.338579 -0.252526 -0.551507 17.566292 0.642473 -0.442765 0.000013 -0.000015 -10.744978 11.029352 0.218459 -0.143593 -0.000023 0.000041 -10.930840 -0.000003 0.000002 -0.000002 -0.000001 -4.087265 -1.487639 0.000005 0.000003 0.000000 2.338573 -0.252532 -0.551441 15.621447 -2.504962 -0.404204 -0.000003 -0.000020 -10.744932 10.766644 0.439666 -0.739322 -0.000001 0.000005 -10.930860 0.000020 -0.000002 0.000001 -0.000018 -4.087227 -1.487653 0.000002 -0.000000 0.000001 
-0.000010 26.731037 39.966072 -7.085511 0.671308 -17.404806 -0.000008 0.900095 1.860703 20.387287 -0.322040 -0.550852 0.000002 0.400292 2.270334 -0.000000 -0.000001 0.000006 0.000022 0.200910 2.296520 0.000002 -0.000001 -0.000002 0.000014 -0.000035 2.305342 -0.000018 0.000001 -0.893160 -0.000008 -0.864462 6.051486 11.493108 -3.748664 -176.183405 0.000019 -0.550446 3.121712 0.000000 -0.000000 -0.000001 -0.788281 -1.313750 4.256765 -131.138881 34.722455 -41.622801 -3.915091 0.000002 -0.000030 -0.000003 0.000001 -0.000002 -6.914877 0.000001 0.000001 -0.000010 -0.000001 -83.360492 -6.096179 -0.000010 -0.000007 -0.000024 0.000044 -0.000061 -1.749930 -0.000002 0.000004 -0.000000 -0.000004 0.000003 -0.700008 -1.166623 -0.466666 0.000001 -0.000002 0.000003 0.788267 -1.313789 4.256749 -127.438721 -31.501652 41.773253 3.915192 -0.000008 -0.000004 -0.000000 0.000001 -0.000003 6.914905 -0.000024 -0.000021 0.000013 -0.000006 66.697501 6.096248 0.000056 -0.000021 0.000027 -0.000055 0.000007 1.749936 0.000009 0.000011 -0.000001 -0.000003 -0.000008 0.699933 -1.166585 -0.466664 0.000021 -0.000005 -0.000028 -2.338579 -0.252532 -0.551511 17.716334 0.720459 -0.476306 0.000012 -0.000011 -10.744971 11.131710 0.065932 -0.147653 -0.000024 0.000038 -10.930841 -0.000003 0.000001 -0.000002 -0.000002 -4.087266 -1.487641 0.000009 0.000002 0.000001 2.338572 -0.252539 -0.551449 15.583970 -2.450502 -0.429549 -0.000005 -0.000019 -10.744936 10.932969 0.403878 -0.758246 -0.000001 0.000008 -10.930858 0.000019 -0.000003 0.000001 -0.000017 -4.087224 -1.487654 -0.000002 -0.000001 -0.000001 
-0.000010 26.731037 39.966068 -7.108910 0.668400 -17.264968 -0.000008 0.900098 1.860709 20.476586 -0.419214 -0.563878 0.000003 0.400292 2.270338 -0.000000 -0.000001 0.000004 0.000022 0.200909 2.296516 0.000002 -0.000000 0.000000 0.000014 -0.000036 2.305338 -0.000017 0.000000 -0.938080 -0.000006 -0.864468 6.051486 11.598023 -3.406678 -176.379882 0.000019 -0.550453 3.121719 -0.000003 -0.000000 -0.000001 -0.788280 -1.313752 4.256758 -131.413154 34.971166 -41.487337 -3.915091 -0.000007 -0.000030 -0.000001 0.000003 -0.000001 -6.914886 0.000005 0.000001 -0.000009 -0.000000 -83.298959 -6.096179 -0.000009 -0.000008 -0.000022 0.000048 -0.000059 -1.749931 -0.000001 0.000008 -0.000000 -0.000003 -0.000006 -0.700003 -1.166620 -0.466668 -0.000001 -0.000004 -0.000002 0.788268 -1.313791 4.256748 -127.465591 -31.456508 41.911253 3.915200 -0.000007 0.000000 0.000002 0.000003 -0.000003 6.914907 -0.000020 -0.000021 0.000012 -0.000007 66.775338 6.096246 0.000056 -0.000021 0.000027 -0.000055 0.000005 1.749929 0.000011 0.000008 -0.000001 -0.000000 -0.000005 0.699932 -1.166586 -0.466660 0.000021 -0.000003 -0.000023 -2.338579 -0.252531 -0.551507 17.772777 0.650856 -0.487143 0.000011 -0.000013 -10.744975 11.072311 0.070105 -0.165765 -0.000023 0.000037 -10.930841 -0.000007 0.000000 -0.000004 -0.000000 -4.087265 -1.487641 0.000002 0.000002 0.000002 2.338571 -0.252535 -0.551449 15.653668 -2.506186 -0.439695 -0.000003 -0.000020 -10.744933 10.941853 0.438349 -0.774914 -0.000003 0.000007 -10.930859 0.000015 -0.000002 0.000003 -0.000017 -4.087224 -1.487656 -0.000004 -0.000001 -0.000001 
-0.000011 26.731037 39.966072 -7.142264 0.707253 -17.039307 -0.000007 0.900095 1.860705 20.532167 -0.458797 -0.531379 0.000003 0.400295 2.270340 -0.000002 -0.000001 0.000004 0.000021 0.200913 2.296526 0.000002 -0.000000 0.000000 0.000016 -0.000037 2.305334 -0.000018 0.000002 -1.086317 -0.000007 -0.864462 6.051492 11.633289 -3.239383 -176.894140 0.000020 -0.550458 3.121716 -0.000003 -0.000001 -0.000000 -0.788284 -1.313749 4.256757 -131.883440 35.303899 -41.134743 -3.915093 -0.000003 -0.000031 -0.000002 -0.000000 0.000000 -6.914886 0.000001 0.000005 -0.000008 -0.000000 -83.037390 -6.096176 -0.000011 -0.000003 -0.000020 0.000045 -0.000063 -1.749933 -0.000000 0.000007 -0.000002 -0.000003 0.000001 -0.700009 -1.166624 -0.466660 -0.000001 -0.000002 0.000004 0.788269 -1.313787 4.256742 -127.543879 -31.635254 41.952002 3.915195 -0.000015 -0.000004 0.000003 0.000002 -0.000004 6.914904 -0.000024 -0.000021 0.000010 -0.000008 66.620313 6.096249 0.000052 -0.000018 0.000028 -0.000054 0.000005 1.749934 0.000011 0.000014 0.000000 0.000001 -0.000000 0.699930 -1.166584 -0.466660 0.000022 -0.000000 -0.000024 -2.338578 -0.252534 -0.551511 17.831378 0.493108 -0.459116 0.000011 -0.000012 -10.744976 10.999984 0.066580 -0.177126 -0.000023 0.000036 -10.930836 -0.000007 -0.000001 -0.000002 -0.000000 -4.087269 -1.487640 0.000000 0.000002 0.000001 2.338572 -0.252535 -0.551448 15.753437 -2.638639 -0.416083 -0.000004 -0.000017 -10.744939 10.959305 0.480140 -0.783463 -0.000002 0.000007 -10.930857 0.000019 -0.000002 0.000003 -0.000018 -4.087220 -1.487651 -0.000001 -0.000001 0.000001 
